<svg width="26" height="20" viewBox="0 0 26 20" fill="none" xmlns="http://www.w3.org/2000/svg">
<path fill-rule="evenodd" clip-rule="evenodd" d="M0 1.42857C0 0.6396 0.6396 0 1.42857 0H24.2857C25.0747 0 25.7143 0.6396 25.7143 1.42857C25.7143 2.21754 25.0747 2.85714 24.2857 2.85714H1.42857C0.6396 2.85714 0 2.21754 0 1.42857ZM0 10C0 9.211 0.6396 8.57143 1.42857 8.57143H15.7143C16.5033 8.57143 17.1429 9.211 17.1429 10C17.1429 10.789 16.5033 11.4286 15.7143 11.4286H1.42857C0.6396 11.4286 0 10.789 0 10ZM0 18.5714C0 17.7824 0.6396 17.1429 1.42857 17.1429H8.57143C9.3604 17.1429 10 17.7824 10 18.5714C10 19.3604 9.3604 20 8.57143 20H1.42857C0.6396 20 0 19.3604 0 18.5714Z" fill="#0A0909"/>
</svg>
