<svg width="60" height="60" viewBox="0 0 60 60" fill="none" xmlns="http://www.w3.org/2000/svg">
<g clip-path="url(#clip0_13_30)">
<path d="M60 30.0023C60 26.5193 59.3982 23.1776 58.3041 20.0684C58.2858 19.9954 58.2631 19.9271 58.2311 19.8587C54.0643 8.29268 42.9815 0 30.0023 0C17.0139 0 5.93572 8.29268 1.76886 19.8632C1.74151 19.9271 1.71871 19.9909 1.70504 20.0593C0.601778 23.1685 0 26.5147 0 30.0023C0 43.2004 8.57078 54.4244 20.4331 58.4317C20.4377 58.4317 20.4422 58.4363 20.4468 58.4363C23.4511 59.4484 26.6606 60.0046 29.9977 60.0046C33.3394 60.0046 36.5489 59.4484 39.5487 58.4363C39.5532 58.4363 39.5578 58.4317 39.5623 58.4317C51.4292 54.4244 60 43.2004 60 30.0023ZM32.3957 57.4926L56.713 23.0408C57.2327 25.0331 57.5291 27.1119 57.5838 29.2501L38.5275 56.2526C36.5671 56.8863 34.5156 57.3057 32.3957 57.4926ZM21.4725 56.248L2.42079 29.2455C2.48005 27.1074 2.77183 25.0285 3.29154 23.0362L27.6088 57.488C25.4844 57.3057 23.4329 56.8863 21.4725 56.248ZM34.8894 49.7926C31.7392 50.5858 28.2608 50.5858 25.1151 49.7926L18.7828 40.8252C21.623 43.7657 25.5984 45.6029 30.0023 45.6029C34.4016 45.6029 38.3816 43.7702 41.2218 40.8252L34.8894 49.7926ZM32.8972 52.6145L29.9977 56.7221L27.0982 52.6145C28.0511 52.7376 29.0176 52.8015 29.9977 52.8015C30.9779 52.8015 31.9444 52.7376 32.8972 52.6145ZM30.0023 24.0027C33.3121 24.0027 36.0018 26.6925 36.0018 30.0023C36.0018 33.3121 33.3121 36.0018 30.0023 36.0018C26.6925 36.0018 24.0027 33.3121 24.0027 30.0023C24.0027 26.6925 26.6925 24.0027 30.0023 24.0027ZM28.7987 21.6959C24.7367 22.2795 21.6002 25.7762 21.6002 30.0023C21.6002 34.6341 25.3704 38.4044 30.0023 38.4044C34.6341 38.4044 38.4044 34.6341 38.4044 30.0023C38.4044 25.7807 35.2678 22.284 31.2058 21.6959V16.8589C37.9257 17.4652 43.2049 23.1274 43.2049 30.0023C43.2049 37.2829 37.2829 43.2004 30.0068 43.2004C22.7308 43.2004 16.7996 37.2783 16.7996 30.0023C16.7996 23.1274 22.0834 17.4698 28.7987 16.8589V21.6959ZM31.2013 14.4518V9.63757C41.1124 10.2257 49.3093 18.0351 50.2895 27.969L43.9845 36.9045C45.0194 34.8211 45.6029 32.4778 45.6029 29.9977C45.6029 21.8008 39.2432 15.0672 31.2013 14.4518ZM28.7987 14.4518C20.7568 15.0672 14.3971 21.8053 14.3971 30.0023C14.3971 32.4823 14.9806 34.8256 16.0155 36.909L9.71051 27.9736C10.6907 18.0351 18.8876 10.2302 28.7987 9.64212V14.4518ZM42.7034 54.4928L57.3421 33.7497C56.1067 42.7855 50.4855 50.4399 42.7034 54.4928ZM55.7876 20.1778L52.2726 25.1561C50.1163 15.2542 41.4634 7.77297 31.1967 7.23045V2.42991C42.4436 2.91315 51.9581 10.1527 55.7876 20.1778ZM28.7987 2.42991V7.23501C18.532 7.77752 9.87919 15.2587 7.72282 25.1607L4.21245 20.1824C8.04194 10.1527 17.561 2.91315 28.7987 2.42991ZM2.66241 33.7497L17.3011 54.4928C9.51447 50.4399 3.89332 42.7855 2.66241 33.7497Z" fill="#0A0909"/>
</g>
<defs>
<clipPath id="clip0_13_30">
<rect width="60" height="60" fill="white"/>
</clipPath>
</defs>
</svg>
