<svg width="51" height="60" viewBox="0 0 51 60" fill="none" xmlns="http://www.w3.org/2000/svg">
<g clip-path="url(#clip0_15_2)">
<path d="M50.9223 15.2298V15.2254C50.9223 15.134 50.9092 15.0469 50.8875 14.9598C50.8831 14.9337 50.8744 14.9119 50.8657 14.8858C50.8439 14.8205 50.8178 14.7596 50.7873 14.703C50.7743 14.6812 50.7655 14.6594 50.7525 14.6377C50.7089 14.5636 50.6567 14.494 50.5957 14.433L50.5914 14.4287C50.5261 14.3634 50.4564 14.3111 50.3781 14.2632C50.3693 14.2589 50.3606 14.2502 50.3519 14.2458L25.9575 0.152496C25.6005 -0.052134 25.1651 -0.052134 24.8081 0.152496L0.57035 14.2415C0.269937 14.4156 0.0783688 14.716 0.0261229 15.0469C0.00870764 15.0905 0 15.1514 0 15.2298V44.7705C0 45.1797 0.217691 45.5585 0.574704 45.7631L24.9692 59.8477C24.9822 59.8564 24.9996 59.8564 25.0127 59.8651C25.0737 59.8956 25.139 59.9217 25.2043 59.9435C25.226 59.9522 25.2478 59.9609 25.2739 59.9653C25.361 59.9871 25.4481 60.0001 25.5439 60.0001C25.6353 60.0001 25.7267 59.9871 25.8138 59.9653C25.8356 59.9609 25.8617 59.9522 25.8835 59.9435C25.9531 59.9217 26.0141 59.8956 26.0794 59.8608C26.0924 59.8521 26.1099 59.8521 26.1229 59.8434L50.3606 45.7588C50.7133 45.5541 50.931 45.1754 50.931 44.7661V15.2298C50.9223 15.2298 50.9223 15.2298 50.9223 15.2298ZM16.2093 25.2523V52.1458L10.3969 48.789V21.8955L16.2093 25.2523ZM18.5037 26.5758L24.3945 29.9762V56.8697L18.5037 53.4694V26.5758ZM26.6889 39.8202L48.6322 27.0678V34.2647L26.6889 47.017V39.8202ZM48.6322 24.4163L26.6889 37.173V29.9762L41.9839 21.0857C42.1668 21.0334 42.3409 20.9376 42.4802 20.7983L48.6322 17.2238V24.4163ZM17.2411 7.20133L39.3498 19.9667L33.568 23.3279L11.4593 10.5625L17.2411 7.20133ZM25.3828 2.46873L47.4915 15.2341L41.6312 18.6388L19.5269 5.87342L25.3828 2.46873ZM9.1735 11.8904L31.2822 24.6558L25.5395 27.9908L3.43081 15.2298L9.1735 11.8904ZM2.29011 17.2151L8.10246 20.5719V47.4655L2.29011 44.1087V17.2151ZM26.6889 56.8654V49.6685L48.6322 36.9162V44.113L26.6889 56.8654Z" fill="#0A0909"/>
</g>
<defs>
<clipPath id="clip0_15_2">
<rect width="50.9223" height="60" fill="white"/>
</clipPath>
</defs>
</svg>
