<svg width="71" height="60" viewBox="0 0 71 60" fill="none" xmlns="http://www.w3.org/2000/svg">
<g clip-path="url(#clip0_15_4)">
<path d="M22.0298 10.3165C23.0358 10.3165 24.0364 10.4449 25.0049 10.7018C25.7594 10.8998 26.5299 10.4503 26.7279 9.69582C26.9259 8.94133 26.4764 8.1708 25.7219 7.97281C24.5233 7.65711 23.2766 7.49658 22.0298 7.49658C14.0194 7.49658 7.49666 14.014 7.49666 22.0297V37.9755C7.49666 37.9808 7.49666 37.9915 7.49666 37.9969C7.50736 46.0019 14.0194 52.5086 22.0244 52.5086H35.161C35.9369 52.5086 36.5683 51.8772 36.5683 51.1013V22.0297C36.5683 15.5711 41.8229 10.3165 48.2815 10.3165C54.74 10.3165 59.9947 15.5711 59.9947 22.0297V37.0284C59.9947 37.205 60.0321 37.3762 60.091 37.5314C60.0428 37.6705 60.0107 37.8203 60.0107 37.9755C60.0107 44.4341 54.7561 49.6887 48.2975 49.6887C47.5216 49.6887 46.8902 50.3201 46.8902 51.096C46.8902 51.8719 47.5216 52.5033 48.2975 52.5033C56.3079 52.5033 62.8306 45.9858 62.8306 37.9701C62.8306 37.7936 62.7932 37.6223 62.7343 37.4671C62.7825 37.328 62.8146 37.1782 62.8146 37.023V22.0297C62.8146 14.0194 56.2972 7.49658 48.2868 7.49658C40.346 7.49658 33.8714 13.9016 33.759 21.821C33.7483 21.8906 33.7376 21.9601 33.7376 22.0297V37.0284C33.7376 37.0819 33.7483 37.13 33.7537 37.1835V49.6887H22.0298C15.5712 49.6887 10.3166 44.4341 10.3166 37.9755C10.3166 37.9701 10.3166 37.9648 10.3166 37.9594V22.0297C10.3166 15.5711 15.5712 10.3165 22.0298 10.3165Z" fill="#0A0909"/>
<path d="M70.2363 37.4726C70.2845 37.3335 70.3166 37.1836 70.3166 37.0231V22.0298C70.3166 9.88317 60.4334 0 48.2868 0C36.1402 0 26.257 9.88317 26.257 22.0298V42.1921H22.0244C19.7021 42.1921 17.8079 40.3032 17.8079 37.9756V22.0298C17.8079 19.7075 19.6968 17.8133 22.0244 17.8133C22.1903 17.8133 22.3562 17.824 22.5167 17.84C23.2926 17.9363 23.9882 17.3745 24.0792 16.6039C24.1702 15.8334 23.6137 15.1324 22.8431 15.0415C22.5756 15.0094 22.2973 14.9933 22.0244 14.9933C18.145 14.9933 14.9933 18.1504 14.9933 22.0244V37.9702C14.9933 41.8496 18.1504 45.0013 22.0244 45.0013H27.659H27.6643C28.3439 45.0013 28.9111 44.5198 29.0449 43.8776C29.0502 43.8455 29.0502 43.8081 29.0556 43.7706C29.0609 43.7118 29.0716 43.6529 29.0716 43.594V22.0298C29.0716 11.4349 37.692 2.81994 48.2868 2.81994C58.8817 2.81994 67.4967 11.4403 67.4967 22.0298V37.0284C67.4967 37.205 67.5341 37.3709 67.593 37.5314C67.5448 37.6706 67.5127 37.8204 67.5127 37.9809C67.5127 48.5758 58.8924 57.1908 48.3029 57.1908C47.527 57.1908 46.8956 57.8222 46.8956 58.5981C46.8956 59.3739 47.527 60.0053 48.3029 60.0053C60.4495 60.0053 70.3327 50.1222 70.3327 37.9756C70.3327 37.799 70.3005 37.6278 70.2363 37.4726Z" fill="#0A0909"/>
<path d="M48.2868 17.8133C50.6091 17.8133 52.5033 19.7021 52.5033 22.0298V37.0284C52.5033 37.205 52.5408 37.3709 52.5997 37.5314C52.5515 37.6706 52.5194 37.8204 52.5194 37.9809C52.5194 40.3032 50.6305 42.1974 48.3029 42.1974C47.527 42.1974 46.8956 42.8289 46.8956 43.6047C46.8956 44.3806 47.527 45.012 48.3029 45.012C52.1823 45.012 55.334 41.855 55.334 37.9809C55.334 37.8043 55.2965 37.6385 55.2377 37.4779C55.2858 37.3388 55.3179 37.189 55.3179 37.0284V22.0298C55.3179 18.1504 52.1609 14.9987 48.2868 14.9987C44.4074 14.9987 41.2557 18.1557 41.2557 22.0298V57.1854H22.0298C11.4349 57.1854 2.81994 48.5651 2.81994 37.9756C2.81994 37.9702 2.81994 37.9702 2.81994 37.9649V22.0298C2.81994 11.4349 11.4403 2.81994 22.0298 2.81994C24.625 2.81994 27.1399 3.32828 29.505 4.3289C30.2221 4.63391 31.0461 4.2968 31.3511 3.57977C31.6561 2.86275 31.319 2.03871 30.602 1.7337C27.8891 0.583252 24.9996 0 22.0298 0C9.88317 0 0 9.88317 0 22.0298V37.9756C0 37.9809 0 37.9863 0 37.9916C0.00535093 50.1329 9.88852 60.0053 22.0298 60.0053H42.6683C43.4442 60.0053 44.0756 59.3739 44.0756 58.5981V22.0351C44.0756 19.7021 45.9645 17.8133 48.2868 17.8133Z" fill="#0A0909"/>
</g>
<defs>
<clipPath id="clip0_15_4">
<rect width="70.3326" height="60" fill="white"/>
</clipPath>
</defs>
</svg>
