<svg width="60" height="60" viewBox="0 0 60 60" fill="none" xmlns="http://www.w3.org/2000/svg">
<g clip-path="url(#clip0_15_10)">
<path d="M30 0C13.4572 0 0 13.4572 0 30C0 46.5428 13.4572 60 30 60C46.5428 60 60 46.5428 60 30C60 13.4572 46.5428 0 30 0ZM2.49848 30C2.49848 20.5795 7.26335 12.2512 14.5085 7.29066H28.7485V9.62075C18.0719 10.267 9.57979 19.1596 9.57979 30C9.57979 41.2591 18.7409 50.4157 29.9955 50.4157H39.9257C36.922 51.8811 33.5543 52.7093 29.9955 52.7093C29.3037 52.7093 28.7439 53.2691 28.7439 53.9609V57.4697C14.1672 56.8143 2.49848 44.7451 2.49848 30ZM52.7093 30C52.7093 37.277 49.2643 43.7576 43.9305 47.9172H31.2515V45.578C39.284 44.9408 45.628 38.1963 45.628 30.0046C45.628 21.3896 38.6195 14.3811 30.0046 14.3811H21.2485C23.838 12.9248 26.8234 12.0874 30 12.0874C30.6917 12.0874 31.2515 11.5276 31.2515 10.8359V7.33161C43.1933 7.97785 52.7093 17.899 52.7093 30ZM12.0828 30C12.0828 24.821 14.2946 20.1472 17.8216 16.875H28.7485V19.237C23.3601 19.8604 19.1641 24.4478 19.1641 30C19.1641 35.9754 24.0246 40.8313 29.9955 40.8313H37.3953C35.2882 42.274 32.7397 43.125 29.9955 43.125C29.3037 43.125 28.7439 43.6848 28.7439 44.3765V47.8717C19.4508 47.2254 12.0828 39.4569 12.0828 30ZM40.135 38.3328H31.2515V35.9117C33.9867 35.3337 36.0437 32.9035 36.0437 30C36.0437 26.6687 33.3313 23.9563 30 23.9563H24.2794C25.7721 22.541 27.7837 21.6672 30 21.6672C30.6917 21.6672 31.2515 21.1074 31.2515 20.4157V16.9342C37.905 17.5667 43.125 23.1826 43.125 30C43.125 33.1629 42.0009 36.0664 40.135 38.3328ZM22.4681 26.4593H30C31.9524 26.4593 33.5407 28.0476 33.5407 30C33.5407 31.9524 31.9524 33.5407 30 33.5407C29.3083 33.5407 28.7485 34.1004 28.7485 34.7922V38.2282C24.7436 37.6229 21.6672 34.1687 21.6672 30C21.6672 28.7348 21.9584 27.5334 22.4681 26.4593ZM31.2515 57.4697V55.1805C44.5722 54.5252 55.2124 43.4845 55.2124 30C55.2124 16.1013 43.9032 4.79217 30.0046 4.79217H19.0276C22.3908 3.32221 26.0998 2.49848 30 2.49848C45.1638 2.49848 57.5015 14.8362 57.5015 30C57.5015 44.7451 45.8374 56.8143 31.2515 57.4697Z" fill="#0A0909"/>
</g>
<defs>
<clipPath id="clip0_15_10">
<rect width="60" height="60" fill="white"/>
</clipPath>
</defs>
</svg>
