<svg width="35" height="35" viewBox="0 0 35 35" fill="none" xmlns="http://www.w3.org/2000/svg">
<path d="M10.3662 32.6538C11.0987 32.6538 11.5967 32.2729 12.4756 31.4819L17.544 26.9849H26.9336C31.2989 26.9849 33.6425 24.5679 33.6425 20.2759V9.05519C33.6425 4.76319 31.2989 2.34619 26.9336 2.34619H8.06648C3.71586 2.34619 1.35748 4.7485 1.35748 9.05519V20.2759C1.35748 24.5825 3.71586 26.9849 8.06648 26.9849H8.76954V30.7934C8.76954 31.9214 9.35548 32.6538 10.3662 32.6538ZM10.9668 29.9731V25.7251C10.9668 24.9341 10.6739 24.6264 9.86817 24.6264H8.08111C5.10748 24.6264 3.71586 23.1177 3.71586 20.2613V9.05519C3.71586 6.19875 5.10748 4.70457 8.08111 4.70457H26.9336C29.8925 4.70457 31.2842 6.19875 31.2842 9.05519V20.2613C31.2842 23.1177 29.8925 24.6264 26.9336 24.6264H17.4415C16.6358 24.6264 16.211 24.7436 15.6543 25.3149L10.9668 29.9731ZM10.7764 13.9771C10.7764 15.5884 11.7725 16.8335 13.3839 16.8335C13.9697 16.8335 14.5557 16.7309 14.9219 16.2769H15.0391C14.5117 17.4341 13.4424 18.1811 12.5195 18.4156C11.9922 18.562 11.8311 18.7964 11.8311 19.1333C11.8311 19.4995 12.124 19.7778 12.5342 19.7778C13.9697 19.7778 16.8262 18.0786 16.8262 14.5044C16.8262 12.5854 15.5811 11.1059 13.75 11.1059C12.0508 11.1059 10.7764 12.2925 10.7764 13.9771ZM18.3936 13.9771C18.3936 15.5884 19.3897 16.8335 21.001 16.8335C21.5869 16.8335 22.1729 16.7309 22.5391 16.2769H22.6563C22.129 17.4341 21.0596 18.1811 20.1367 18.4156C19.6094 18.562 19.4483 18.7964 19.4483 19.1333C19.4483 19.4995 19.7412 19.7778 20.1514 19.7778C21.5869 19.7778 24.458 18.0786 24.458 14.5044C24.458 12.5854 23.1983 11.1059 21.3672 11.1059C19.668 11.1059 18.3936 12.2925 18.3936 13.9771Z" fill="#979797"/>
</svg>
